<?xml version="1.0" encoding="UTF-8"?>
<svg version="1.1" xmlns="http://www.w3.org/2000/svg" width="512" height="512">
<path d="M0 0 C1.04929687 0.76699219 2.09859375 1.53398438 3.1796875 2.32421875 C10.90224235 8.06397087 18.0515068 14.3489299 25 21 C25.55300781 21.52045898 26.10601562 22.04091797 26.67578125 22.57714844 C39.19537484 34.39728392 58.1905315 52.62686766 62 70 C53.33415212 75.40557976 44.57679187 80.59285976 35.6875 85.625 C33.24118748 87.01256802 30.79595901 88.40202828 28.3515625 89.79296875 C27.74029007 90.14075882 27.12901764 90.48854889 26.4992218 90.84687805 C22.31811699 93.23205676 18.16530662 95.66056416 14.0234375 98.11328125 C12.93329346 98.75765137 11.84314941 99.40202148 10.7199707 100.06591797 C8.66025256 101.2868102 6.60392137 102.51343997 4.55151367 103.74658203 C3.62830322 104.2929834 2.70509277 104.83938477 1.75390625 105.40234375 C0.95283447 105.88179443 0.1517627 106.36124512 -0.67358398 106.85522461 C-3.12379952 108.06091887 -5.31039757 108.58775128 -8 109 C-8.59425781 108.14019531 -9.18851562 107.28039062 -9.80078125 106.39453125 C-32.3510764 74.09163654 -62.33788825 51.19480635 -101.8125 44.125 C-104.53591918 43.69163517 -107.26200432 43.32769818 -110 43 C-111.25425781 42.84660156 -112.50851562 42.69320312 -113.80078125 42.53515625 C-132.19961033 40.86253542 -150.47406576 43.35153418 -168 49 C-168.69673828 49.22171875 -169.39347656 49.4434375 -170.11132812 49.671875 C-186.1127869 54.88941227 -200.15790468 63.18581913 -213 74 C-214.00675781 74.84175781 -215.01351562 75.68351562 -216.05078125 76.55078125 C-240.79371992 97.89606275 -256.5919954 129.58522901 -260 162 C-260.1340625 163.17175781 -260.268125 164.34351563 -260.40625 165.55078125 C-262.07087847 184.069773 -259.68992148 202.34543809 -254 220 C-253.77828125 220.69673828 -253.5565625 221.39347656 -253.328125 222.11132812 C-248.11058773 238.1127869 -239.81418087 252.15790468 -229 265 C-228.15824219 266.00675781 -227.31648438 267.01351563 -226.44921875 268.05078125 C-205.10393725 292.79371992 -173.41477099 308.5919954 -141 312 C-139.82824219 312.1340625 -138.65648437 312.268125 -137.44921875 312.40625 C-118.930227 314.07087847 -100.65456191 311.68992148 -83 306 C-82.30326172 305.77828125 -81.60652344 305.5565625 -80.88867188 305.328125 C-64.8872131 300.11058773 -50.84209532 291.81418087 -38 281 C-36.99324219 280.15824219 -35.98648437 279.31648438 -34.94921875 278.44921875 C-24.26773408 269.22665175 -15.40732715 257.9881742 -8 246 C-3.83414554 246.59566537 -0.85980498 248.00269505 2.76953125 250.10546875 C4.45647095 251.07613281 4.45647095 251.07613281 6.17749023 252.06640625 C7.38928222 252.77322827 8.60094925 253.48026456 9.8125 254.1875 C11.06486366 254.91201501 12.3175534 255.63596667 13.57055664 256.359375 C16.76809418 258.20782313 19.96056292 260.06484209 23.1517334 261.92425537 C26.00704722 263.58613061 28.86710623 265.23979672 31.7265625 266.89453125 C41.90218071 272.79461358 52.04225057 278.73750914 62 285 C57.26235761 301.08429592 42.36507099 316.12670484 31 328 C30.47954102 328.55300781 29.95908203 329.10601562 29.42285156 329.67578125 C20.40059417 339.23193193 10.71196204 347.3925764 0 355 C-0.5765332 355.41056641 -1.15306641 355.82113281 -1.74707031 356.24414062 C-24.8440033 372.43267754 -51.54795351 383.82735049 -79 390 C-79.9389209 390.21172852 -80.8778418 390.42345703 -81.84521484 390.64160156 C-137.11795038 402.44633878 -194.90256086 390.07803924 -242.66796875 360.8046875 C-245.51393489 358.94747842 -248.26728 357.01966333 -251 355 C-252.04929687 354.23300781 -253.09859375 353.46601563 -254.1796875 352.67578125 C-261.90224235 346.93602913 -269.0515068 340.6510701 -276 334 C-276.82951172 333.21931152 -276.82951172 333.21931152 -277.67578125 332.42285156 C-287.23193193 323.40059417 -295.3925764 313.71196204 -303 303 C-303.41056641 302.4234668 -303.82113281 301.84693359 -304.24414062 301.25292969 C-320.43267754 278.1559967 -331.82735049 251.45204649 -338 224 C-338.21172852 223.0610791 -338.42345703 222.1221582 -338.64160156 221.15478516 C-350.44633878 165.88204962 -338.07803924 108.09743914 -308.8046875 60.33203125 C-306.94747842 57.48606511 -305.01966333 54.73272 -303 52 C-302.23300781 50.95070313 -301.46601563 49.90140625 -300.67578125 48.8203125 C-294.93602913 41.09775765 -288.6510701 33.9484932 -282 27 C-281.47954102 26.44699219 -280.95908203 25.89398438 -280.42285156 25.32421875 C-271.40059417 15.76806807 -261.71196204 7.6074236 -251 0 C-250.4234668 -0.41056641 -249.84693359 -0.82113281 -249.25292969 -1.24414062 C-226.1559967 -17.43267754 -199.45204649 -28.82735049 -172 -35 C-171.0610791 -35.21172852 -170.1221582 -35.42345703 -169.15478516 -35.64160156 C-111.9093467 -47.86765391 -47.20842217 -34.89018956 0 0 Z " fill="#FEFEFF" transform="translate(382,79)"/>
<path d="M0 0 C42.57 0 85.14 0 129 0 C129 26.4 129 52.8 129 80 C86.43 80 43.86 80 0 80 C0 53.6 0 27.2 0 0 Z " fill="#FFFFFF" transform="translate(281,217)"/>
</svg>
